<svg width="120px" height="26px" viewBox="0 0 120 26" version="1.1" xmlns="http://www.w3.org/2000/svg" xmlns:xlink="http://www.w3.org/1999/xlink">
            <defs>
                <polygon id="path-1" points="26.501 22.479 0.130 22.479 0.130 0.080 26.501 0.080 26.501 22.479"></polygon>
                <polygon id="path-3" points="0.011 4.302 0.733 0.203 10.985 0.203 8.823 12.482 0.011 12.482 0.011 4.302"></polygon>
                <path d="M0.042,10.446 C0.263,10.363 0.478,10.268 0.687,10.161 L2.387,0.505 L2.387,10.446 L0.042,10.446 L0.042,10.446 Z M1.880,0.019 C2.058,0.171 2.227,0.334 2.387,0.505 L1.880,0.019 Z" id="path-5"></path>
            </defs>
            <g id="Page-1" stroke="none" stroke-width="1" fill="none" fill-rule="evenodd">
                <g id="letyshop_step1_quest_right" transform="translate(-15.000, -16.000)">
                    <g id="header">
                        <g id="logo_vector" transform="translate(15.000, 16.000)">
                            <polyline id="Fill-1" fill="#0C0E0F" points="7.776 20.700 3.026 20.700 6.671 0 11.421 0 7.776 20.700"></polyline>
                            <path d="M14.679,12.530 L19.483,12.530 C19.456,11.206 18.462,10.515 17.330,10.515 C16.142,10.515 15.121,11.261 14.679,12.530 Z M23.404,15.566 L14.706,15.566 C15.148,16.643 16.170,17.112 17.661,17.112 C18.986,17.112 20.174,16.726 21.361,16.063 L22.880,19.210 C21.140,20.424 19.290,21.031 17.247,21.031 C12.856,21.031 9.929,18.216 9.929,14.380 C9.929,10.184 13.408,6.845 17.716,6.845 C21.610,6.845 23.957,9.605 23.957,12.779 C23.957,13.800 23.708,14.849 23.404,15.566 L23.404,15.566 Z" id="Fill-2" fill="#0C0E0F"></path>
                            <g id="Group-6" transform="translate(23.936, 3.507)">
                                <mask id="mask-2" fill="white">
                                    <use xlink:href="#path-1"></use>
                                </mask>
                                <g id="Clip-4"></g>
                                <path d="M6.233,11.369 C6.205,11.589 6.178,11.755 6.178,11.948 C6.178,13.163 7.172,13.466 8.912,13.466 L10.016,13.466 L9.326,17.385 C8.773,17.468 8.276,17.524 7.558,17.524 C4.935,17.524 1.373,16.778 1.373,12.887 C1.373,12.390 1.428,11.921 1.511,11.424 L2.201,7.587 L0.130,7.587 L0.821,3.668 L2.892,3.668 L3.527,0.080 L8.276,0.080 L7.614,3.668 L11.369,3.668 L10.679,7.587 L6.923,7.587 L6.233,11.369" id="Fill-3" fill="#0C0E0F" mask="url(#mask-2)"></path>
                                <path d="M26.501,3.668 L24.292,16.171 C23.574,20.284 20.592,22.492 16.891,22.492 C14.461,22.492 11.755,21.526 9.933,19.400 L12.694,16.226 C14.075,17.413 15.235,18.241 16.891,18.241 C18.272,18.241 19.266,17.661 19.570,16.033 L19.653,15.509 C18.769,16.116 17.692,16.475 16.450,16.475 C13.550,16.475 11.672,14.460 11.672,11.865 C11.672,11.424 11.728,10.844 11.811,10.403 L12.998,3.668 L17.747,3.668 L16.588,10.237 C16.560,10.403 16.533,10.596 16.533,10.761 C16.533,11.755 17.333,12.472 18.410,12.472 C19.404,12.472 20.316,11.865 20.509,10.706 L21.751,3.668 L26.501,3.668" id="Fill-5" fill="#0C0E0F" mask="url(#mask-2)"></path>
                            </g>
                            <path d="M61.510,9.218 L58.859,11.868 C58.003,10.957 56.981,10.515 56.180,10.515 C55.628,10.515 55.38,10.736 55.38,11.067 C55.38,11.426 55.656,11.592 56.125,11.785 L57.368,12.254 C59.604,13.138 61.096,14.324 61.096,16.312 C61.096,18.299 59.632,21.031 55.462,21.031 C52.784,21.031 50.464,19.900 49.249,17.912 L52.038,15.346 C53.060,16.533 54.082,17.360 55.490,17.360 C56.097,17.360 56.650,17.195 56.650,16.753 C56.650,16.422 56.374,16.229 55.904,16.036 L54.606,15.539 C52.397,14.656 50.906,13.469 50.906,11.233 C50.906,8.501 53.088,6.845 56.070,6.845 C58.389,6.845 60.240,7.673 61.510,9.218" id="Fill-7" fill="#F5D024"></path>
                            <path d="M75.979,11.509 C75.979,12.006 75.924,12.503 75.813,13.110 L74.488,20.700 L69.738,20.700 L71.008,13.331 C71.064,13.110 71.091,12.862 71.091,12.641 C71.091,11.564 70.318,10.902 69.214,10.902 C68.192,10.902 67.336,11.482 67.115,12.779 L65.734,20.700 L60.985,20.700 L64.630,0 L69.379,0 L67.971,7.893 C68.799,7.258 69.849,6.845 71.202,6.845 C74.046,6.845 75.979,8.721 75.979,11.509" id="Fill-8" fill="#F5D024"></path>
                            <path d="M81.418,14.131 C81.390,15.732 82.440,16.781 83.903,16.781 C85.505,16.781 86.775,15.539 86.803,13.828 C86.830,12.171 85.725,11.095 84.262,11.095 C82.661,11.095 81.445,12.420 81.418,14.131 Z M91.663,13.662 C91.663,17.885 87.962,21.031 83.710,21.031 C79.595,21.031 76.558,18.078 76.558,14.242 C76.558,10.019 80.230,6.845 84.455,6.845 C88.542,6.845 91.663,9.798 91.663,13.662 L91.663,13.662 Z" id="Fill-9" fill="#F5D024"></path>
                            <path d="M100.277,11.095 C98.648,11.095 97.378,12.337 97.350,14.048 C97.323,15.705 98.427,16.809 99.919,16.809 C101.548,16.809 102.790,15.456 102.818,13.745 C102.845,12.144 101.769,11.095 100.277,11.095 Z M107.678,13.220 C107.678,16.533 105.469,21.059 100.277,21.059 C98.455,21.059 97.185,20.507 96.384,19.541 L95.335,25.668 L90.585,25.668 L93.843,7.176 L98.179,7.176 L97.958,8.473 C98.869,7.397 100.194,6.845 101.769,6.845 C105.386,6.845 107.678,9.825 107.678,13.220 L107.678,13.220 Z" id="Fill-10" fill="#F5D024"></path>
                            <path d="M119.165,9.218 L116.514,11.868 C115.658,10.957 114.636,10.515 113.835,10.515 C113.283,10.515 113.034,10.736 113.034,11.067 C113.034,11.426 113.310,11.592 113.780,11.785 L115.022,12.254 C117.259,13.138 118.750,14.324 118.750,16.312 C118.750,18.299 117.287,21.031 113.117,21.031 C110.439,21.031 108.119,19.900 106.904,17.912 L109.693,15.346 C110.715,16.533 111.736,17.360 113.145,17.360 C113.752,17.360 114.305,17.195 114.305,16.753 C114.305,16.422 114.028,16.229 113.559,16.036 L112.261,15.539 C110.052,14.656 108.561,13.469 108.561,11.233 C108.561,8.501 110.742,6.845 113.725,6.845 C116.044,6.845 117.894,7.673 119.165,9.218" id="Fill-11" fill="#F5D024"></path>
                            <g id="Group-15" transform="translate(0.000, 2.269)">
                                <mask id="mask-4" fill="white">
                                    <use xlink:href="#path-3"></use>
                                </mask>
                                <g id="Clip-13"></g>
                                <path d="M6.151,0.203 C2.760,0.203 0.011,2.951 0.011,6.342 C0.011,9.733 2.760,12.482 6.151,12.482 C9.541,12.482 12.290,9.733 12.290,6.342 C12.290,2.951 9.541,0.203 6.151,0.203" id="Fill-12" fill="#E6C02A" mask="url(#mask-4)"></path>
                                <path d="M6.151,1.908 C3.701,1.908 1.716,3.893 1.716,6.342 C1.716,8.791 3.701,10.776 6.151,10.776 C8.600,10.776 10.585,8.791 10.585,6.342 C10.585,3.893 8.600,1.908 6.151,1.908" id="Fill-14" fill="#F5D024" mask="url(#mask-4)"></path>
                            </g>
                            <g id="Group-19" transform="translate(8.253, 3.920)">
                                <mask id="mask-6" fill="white">
                                    <use xlink:href="#path-5"></use>
                                </mask>
                                <g id="Clip-17"></g>
                                <path d="M0.042,10.446 L0.412,8.343 C0.666,8.168 0.901,7.967 1.113,7.744 L0.687,10.161 C0.478,10.268 0.263,10.363 0.042,10.446 M1.962,2.919 C1.839,2.636 1.687,2.368 1.510,2.120 L1.880,0.019 C2.058,0.171 2.227,0.334 2.387,0.505 L1.962,2.919" id="Fill-16" fill="#D4B32F" mask="url(#mask-6)"></path>
                                <path d="M0.412,8.343 L1.510,2.120 C1.687,2.368 1.839,2.636 1.962,2.919 L1.113,7.744 C0.901,7.967 0.666,8.168 0.412,8.343" id="Fill-18" fill="#D9B82E" mask="url(#mask-6)"></path>
                            </g>
                        </g>
                    </g>
                </g>
            </g>
        </svg>