<svg width="420px" height="14px" viewBox="0 0 420 14" version="1.1" xmlns="http://www.w3.org/2000/svg" xmlns:xlink="http://www.w3.org/1999/xlink">
    <g id="Page-1" stroke="none" stroke-width="1" fill="none" fill-rule="evenodd">
        <path d="M420,0 L420,14 L0,14 L0,0 L4,0 C4,2.714 6.2033,4.917 8.9171,4.917 C11.6309,4.917 13.8342,2.714 13.8342,0 L18.3403,0 C18.3403,2.714 20.5436,4.917 23.2574,4.917 C25.9712,4.917 28.1745,2.714 28.1745,0 L32.6806,0 C32.6806,2.714 34.8839,4.917 37.5977,4.917 C40.3115,4.917 42.5147,2.714 42.5147,0 L47.0208,0 C47.0209,2.714 49.2241,4.917 51.9379,4.917 C54.6517,4.917 56.855,2.714 56.855,0 L61.3611,0 C61.3612,2.714 63.5644,4.917 66.2782,4.917 C68.992,4.917 71.1953,2.714 71.1953,0 L75.7014,0 C75.7015,2.714 77.9047,4.917 80.6185,4.917 C83.3323,4.917 85.5356,2.714 85.5356,0 L90.0417,0 C90.0417,2.714 92.245,4.917 94.9588,4.917 C97.6726,4.917 99.8759,2.714 99.8759,0 L104.382,0 C104.382,2.714 106.585,4.917 109.299,4.917 C112.013,4.917 114.216,2.714 114.216,0 L118.722,0 C118.722,2.714 120.926,4.917 123.639,4.917 C126.353,4.917 128.556,2.714 128.556,0 L133.063,0 C133.063,2.714 135.266,4.917 137.98,4.917 C140.693,4.917 142.897,2.714 142.897,0 L147.403,0 C147.403,2.714 149.606,4.917 152.32,4.917 C155.034,4.917 157.237,2.714 157.237,0 L161.743,0 C161.743,2.714 163.946,4.917 166.66,4.917 C169.374,4.917 171.577,2.714 171.577,0 L176.083,0 C176.083,2.714 178.287,4.917 181,4.917 C183.714,4.917 185.918,2.714 185.918,0 L190.424,0 C190.424,2.714 192.627,4.917 195.341,4.917 C198.055,4.917 200.258,2.714 200.258,0 L204.764,0 C204.764,2.714 206.967,4.917 209.681,4.917 C212.395,4.917 214.598,2.714 214.598,0 L219.104,0 C219.104,2.714 221.308,4.917 224.021,4.917 C226.735,4.917 228.938,2.714 228.938,0 L233.445,0 C233.445,2.714 235.648,4.917 238.362,4.917 C241.075,4.917 243.279,2.714 243.279,0 L247.785,0 C247.785,2.714 249.988,4.917 252.702,4.917 C255.416,4.917 257.619,2.714 257.619,0 L262.125,0 C262.125,2.714 264.328,4.917 267.042,4.917 C269.756,4.917 271.959,2.714 271.959,0 L276.465,0 C276.465,2.714 278.669,4.917 281.382,4.917 C284.096,4.917 286.3,2.714 286.3,0 L290.806,0 C290.806,2.714 293.009,4.917 295.723,4.917 C298.437,4.917 300.64,2.714 300.64,0 L305.146,0 C305.146,2.714 307.349,4.917 310.063,4.917 C312.777,4.917 314.98,2.714 314.98,0 L319.486,0 C319.486,2.714 321.69,4.917 324.403,4.917 C327.117,4.917 329.32,2.714 329.32,0 L333.827,0 C333.827,2.714 336.03,4.917 338.744,4.917 C341.457,4.917 343.661,2.714 343.661,0 L348.167,0 C348.167,2.714 350.37,4.917 353.084,4.917 C355.798,4.917 358.001,2.714 358.001,0 L362.507,0 C362.507,2.714 364.71,4.917 367.424,4.917 C370.138,4.917 372.341,2.714 372.341,0 L376.847,0 C376.847,2.714 379.051,4.917 381.764,4.917 C384.478,4.917 386.682,2.714 386.682,0 L391.188,0 C391.188,2.714 393.391,4.917 396.105,4.917 C398.819,4.917 401.022,2.714 401.022,0 L405.528,0 C405.528,2.714 407.731,4.917 410.445,4.917 C413.159,4.917 415.362,2.714 415.362,0 L420,0 Z" fill="#FFFFFF"></path>
    </g>
</svg>