<?xml version="1.0" encoding="UTF-8"?>
<svg width="351px" height="14px" viewBox="0 0 351 14" version="1.1" xmlns="http://www.w3.org/2000/svg" xmlns:xlink="http://www.w3.org/1999/xlink">
    <!-- Generator: Sketch 47.1 (45422) - http://www.bohemiancoding.com/sketch -->
    <title>Top 350</title>
    <desc>Created with Sketch.</desc>
    <defs></defs>
    <g id="Page-1" stroke="none" stroke-width="1" fill="none" fill-rule="evenodd">
        <path d="M350.053908,0 L350.053908,14 L0,14 L0,0 L3.33384675,0 C3.33384675,2.714 5.17021288,4.917 7.43206121,4.917 C9.69390953,4.917 11.5302757,2.714 11.5302757,0 L15.2859374,0 C15.2859374,2.714 17.1223035,4.917 19.3841518,4.917 C21.6460002,4.917 23.4823663,2.714 23.4823663,0 L27.238028,0 C27.238028,2.714 29.0743941,4.917 31.3362425,4.917 C33.5980908,4.917 35.4343736,2.714 35.4343736,0 L39.1900353,0 C39.1901186,2.714 41.0264014,4.917 43.2882497,4.917 C45.5500981,4.917 47.3864642,2.714 47.3864642,0 L51.1421259,0 C51.1422092,2.714 52.978492,4.917 55.2403404,4.917 C57.5021887,4.917 59.3385548,2.714 59.3385548,0 L63.0942165,0 C63.0942999,2.714 64.9305827,4.917 67.192431,4.917 C69.4542793,4.917 71.2906454,2.714 71.2906454,0 L75.0463071,0 C75.0463071,2.714 76.8826733,4.917 79.1445216,4.917 C81.4063699,4.917 83.2427361,2.714 83.2427361,0 L86.9983978,0 C86.9983978,2.714 88.8345139,4.917 91.0965289,4.917 C93.3585439,4.917 95.19466,2.714 95.19466,0 L98.9502384,0 C98.9502384,2.714 100.787188,4.917 103.048369,4.917 C105.310384,4.917 107.146501,2.714 107.146501,0 L110.902912,0 C110.902912,2.714 112.739028,4.917 115.001044,4.917 C117.262225,4.917 119.099175,2.714 119.099175,0 L122.854753,0 C122.854753,2.714 124.690869,4.917 126.952884,4.917 C129.214899,4.917 131.051015,2.714 131.051015,0 L134.806594,0 C134.806594,2.714 136.64271,4.917 138.904725,4.917 C141.16674,4.917 143.002856,2.714 143.002856,0 L146.758434,0 C146.758434,2.714 148.595384,4.917 150.856565,4.917 C153.11858,4.917 154.95553,2.714 154.95553,0 L158.711108,0 C158.711108,2.714 160.547224,4.917 162.809239,4.917 C165.071254,4.917 166.90737,2.714 166.90737,0 L170.662949,0 C170.662949,2.714 172.499065,4.917 174.76108,4.917 C177.023095,4.917 178.859211,2.714 178.859211,0 L182.614789,0 C182.614789,2.714 184.451739,4.917 186.71292,4.917 C188.974936,4.917 190.811052,2.714 190.811052,0 L194.567463,0 C194.567463,2.714 196.40358,4.917 198.665595,4.917 C200.926776,4.917 202.763726,2.714 202.763726,0 L206.519304,0 C206.519304,2.714 208.35542,4.917 210.617435,4.917 C212.87945,4.917 214.715566,2.714 214.715566,0 L218.471145,0 C218.471145,2.714 220.307261,4.917 222.569276,4.917 C224.831291,4.917 226.667407,2.714 226.667407,0 L230.422985,0 C230.422985,2.714 232.259935,4.917 234.521116,4.917 C236.783131,4.917 238.620081,2.714 238.620081,0 L242.375659,0 C242.375659,2.714 244.211775,4.917 246.47379,4.917 C248.735805,4.917 250.571921,2.714 250.571921,0 L254.3275,0 C254.3275,2.714 256.163616,4.917 258.425631,4.917 C260.687646,4.917 262.523762,2.714 262.523762,0 L266.27934,0 C266.27934,2.714 268.11629,4.917 270.377472,4.917 C272.639487,4.917 274.475603,2.714 274.475603,0 L278.232014,0 C278.232014,2.714 280.068131,4.917 282.330146,4.917 C284.591327,4.917 286.428277,2.714 286.428277,0 L290.183855,0 C290.183855,2.714 292.019971,4.917 294.281986,4.917 C296.544001,4.917 298.380117,2.714 298.380117,0 L302.135696,0 C302.135696,2.714 303.971812,4.917 306.233827,4.917 C308.495842,4.917 310.331958,2.714 310.331958,0 L314.087536,0 C314.087536,2.714 315.924486,4.917 318.185667,4.917 C320.447682,4.917 322.284632,2.714 322.284632,0 L326.04021,0 C326.04021,2.714 327.876326,4.917 330.138341,4.917 C332.400356,4.917 334.236472,2.714 334.236472,0 L337.992051,0 C337.992051,2.714 339.828167,4.917 342.090182,4.917 C344.352197,4.917 346.188313,2.714 346.188313,0 L350.053908,0 Z" id="Top-350" fill="#FFFFFF"></path>
    </g>
</svg>