<svg width="500px" height="14px" viewBox="0 0 500 14" version="1.1" xmlns="http://www.w3.org/2000/svg" xmlns:xlink="http://www.w3.org/1999/xlink">
    <g id="Page-1" stroke="none" stroke-width="1" fill="none" fill-rule="evenodd">
        <path d="M500,0 L500,14 L0,14 L0,0 L4.76,0 C4.76,2.71 7.38,4.91 10.61,4.91 C13.84,4.91 16.46,2.71 16.46,0 L21.83,0 C21.83,2.71 24.45,4.91 27.68,4.91 C30.91,4.91 33.54,2.71 33.54,0 L38.90,0 C38.90,2.71 41.52,4.91 44.75,4.91 C47.98,4.91 50.61,2.71 50.61,0 L55.97,0 C55.97,2.71 58.60,4.91 61.83,4.91 C65.06,4.91 67.68,2.71 67.68,0 L73.04,0 C73.04,2.71 75.67,4.91 78.90,4.91 C82.13,4.91 84.75,2.71 84.75,0 L90.12,0 C90.12,2.71 92.74,4.91 95.97,4.91 C99.20,4.91 101.82,2.71 101.82,0 L107.19,0 C107.19,2.71 109.81,4.91 113.04,4.91 C116.27,4.91 118.89,2.71 118.89,0 L124.26,0 C124.26,2.71 126.88,4.91 130.11,4.91 C133.34,4.91 135.97,2.71 135.97,0 L141.33,0 C141.33,2.71 143.95,4.91 147.18,4.91 C150.42,4.91 153.04,2.71 153.04,0 L158.40,0 C158.40,2.71 161.03,4.91 164.26,4.91 C167.49,4.91 170.11,2.71 170.11,0 L175.47,0 C175.47,2.71 178.10,4.91 181.33,4.91 C184.56,4.91 187.18,2.71 187.18,0 L192.55,0 C192.55,2.71 195.17,4.91 198.40,4.91 C201.63,4.91 204.25,2.71 204.25,0 L209.62,0 C209.62,2.71 212.24,4.91 215.47,4.91 C218.70,4.91 221.33,2.71 221.33,0 L226.69,0 C226.69,2.71 229.31,4.91 232.54,4.91 C235.77,4.91 238.40,2.71 238.40,0 L243.76,0 C243.76,2.71 246.38,4.91 249.62,4.91 C252.85,4.91 255.47,2.71 255.47,0 L260.83,0 C260.83,2.71 263.46,4.91 266.69,4.91 C269.92,4.91 272.54,2.71 272.54,0 L277.91,0 C277.91,2.71 280.53,4.91 283.76,4.91 C286.99,4.91 289.61,2.71 289.61,0 L294.98,0 C294.98,2.71 297.60,4.91 300.83,4.91 C304.06,4.91 306.68,2.71 306.68,0 L312.05,0 C312.05,2.71 314.67,4.91 317.90,4.91 C321.13,4.91 323.76,2.71 323.76,0 L329.12,0 C329.12,2.71 331.74,4.91 334.97,4.91 C338.20,4.91 340.83,2.71 340.83,0 L346.19,0 C346.19,2.71 348.82,4.91 352.05,4.91 C355.28,4.91 357.90,2.71 357.90,0 L363.26,0 C363.26,2.71 365.89,4.91 369.12,4.91 C372.35,4.91 374.97,2.71 374.97,0 L380.34,0 C380.34,2.71 382.96,4.91 386.19,4.91 C389.42,4.91 392.04,2.71 392.04,0 L397.41,0 C397.41,2.71 400.03,4.91 403.26,4.91 C406.49,4.91 409.12,2.71 409.12,0 L414.48,0 C414.48,2.71 417.10,4.91 420.33,4.91 C423.56,4.91 426.19,2.71 426.19,0 L431.55,0 C431.55,2.71 434.17,4.91 437.40,4.91 C440.64,4.91 443.26,2.71 443.26,0 L448.62,0 C448.62,2.71 451.25,4.91 454.48,4.91 C457.71,4.91 460.33,2.71 460.33,0 L465.7,0 C465.7,2.71 468.32,4.91 471.55,4.91 C474.78,4.91 477.40,2.71 477.40,0 L482.77,0 C482.77,2.71 485.39,4.91 488.62,4.91 C491.85,4.91 494.47,2.71 494.47,0 L500,0 Z" id="Top-500" fill="#FFFFFF"></path>
    </g>
</svg>